<svg id="Capa_1" data-name="Capa 1" xmlns="http://www.w3.org/2000/svg" viewBox="0 0 34.03 45"><defs><style>.cls-1{fill:#e7eced;}</style></defs><title>user</title><path class="cls-1" d="M18.36,38.3l-7.91,4.31a7.11,7.11,0,0,0-1.27.9,26.48,26.48,0,0,0,34,.09,7,7,0,0,0-1.39-.93l-8.47-4.23a3.23,3.23,0,0,1-1.78-2.89V32.23a12.79,12.79,0,0,0,.8-1A19.48,19.48,0,0,0,35,25.89a2.66,2.66,0,0,0,1.89-2.53V19.82a2.65,2.65,0,0,0-.89-2V12.73s1.05-8-9.75-8-9.75,8-9.75,8v5.13a2.64,2.64,0,0,0-.89,2v3.55a2.66,2.66,0,0,0,1.23,2.23A17.6,17.6,0,0,0,20,32.23v3.24A3.23,3.23,0,0,1,18.36,38.3Z" transform="translate(-9.19 -4.75)"/></svg>